<svg xmlns="http://www.w3.org/2000/svg" width="600" height="300" viewBox="0 0 600 300">
  <rect width="600" height="300" fill="#1d1f21"/>
  <text x="20" y="40" font-family="Arial, sans-serif" font-size="24" font-weight="bold" fill="#ffffff">Expertise Technique - Abubacar Soumah</text>
  
  <g transform="translate(20, 60)">
    <rect width="540" height="30" fill="#3776AB" rx="5"/>
    <text x="10" y="20" font-family="Arial, sans-serif" font-size="16" fill="white">Python</text>
    <text x="530" y="20" font-family="Arial, sans-serif" font-size="16" fill="white" text-anchor="end">90%</text>
  </g>
  
  <g transform="translate(20, 100)">
    <rect width="510" height="30" fill="#092E20" rx="5"/>
    <text x="10" y="20" font-family="Arial, sans-serif" font-size="16" fill="white">Django</text>
    <text x="500" y="20" font-family="Arial, sans-serif" font-size="16" fill="white" text-anchor="end">85%</text>
  </g>
  
  <g transform="translate(20, 140)">
    <rect width="480" height="30" fill="#009688" rx="5"/>
    <text x="10" y="20" font-family="Arial, sans-serif" font-size="16" fill="white">FastAPI</text>
    <text x="470" y="20" font-family="Arial, sans-serif" font-size="16" fill="white" text-anchor="end">80%</text>
  </g>
  
  <g transform="translate(20, 180)">
    <rect width="450" height="30" fill="#F7DF1E" rx="5"/>
    <text x="10" y="20" font-family="Arial, sans-serif" font-size="16" fill="black">JavaScript</text>
    <text x="440" y="20" font-family="Arial, sans-serif" font-size="16" fill="black" text-anchor="end">75%</text>
  </g>
  
  <g transform="translate(20, 220)">
    <rect width="420" height="30" fill="#232F3E" rx="5"/>
    <text x="10" y="20" font-family="Arial, sans-serif" font-size="16" fill="white">AWS</text>
    <text x="410" y="20" font-family="Arial, sans-serif" font-size="16" fill="white" text-anchor="end">70%</text>
  </g>
  
  <g transform="translate(20, 260)">
    <rect width="390" height="30" fill="#FF6F00" rx="5"/>
    <text x="10" y="20" font-family="Arial, sans-serif" font-size="16" fill="white">Machine Learning</text>
    <text x="380" y="20" font-family="Arial, sans-serif" font-size="16" fill="white" text-anchor="end">65%</text>
  </g>
</svg>
